<svg xmlns="http://www.w3.org/2000/svg" xmlns:xlink="http://www.w3.org/1999/xlink" width="375.163" height="210.602" viewBox="0 0 375.163 210.602">
  <defs>
    <radialGradient id="radial-gradient" cx="0.251" cy="0.324" r="0.749" gradientTransform="translate(0 0.032) scale(1 0.902)" gradientUnits="objectBoundingBox">
      <stop offset="0" stop-color="#57bdff"/>
      <stop offset="0.506" stop-color="#4f77fb"/>
      <stop offset="1" stop-color="#6528cf"/>
    </radialGradient>
  </defs>
  <g id="backgorund-image2" transform="translate(0 -600.811)">
    <path id="Path_45" data-name="Path 45" d="M0,680.4s47.875-48.414,93.909-26.317,47.931,71.621,90.227,72.734,95.239-41.175,119.726-8.9,27.826,60.1,46.748,65.67,23.374,27.826,23.374,27.826H0Z" fill="#fff" opacity="0.1"/>
    <path id="Path_46" data-name="Path 46" d="M-3.683,644.872s36.256-60.765,90.64-37.748,49.147,69.145,87.92,94.83,82.176-31.468,114.206-9.207,33.186,76.712,57.32,85.428,21.783,32.808,21.783,32.808" transform="translate(5.862)" fill="none" stroke="#e7ebfc" stroke-width="2" opacity="0.1"/>
    <rect id="Rectangle_19" data-name="Rectangle 19" width="11" height="11" transform="translate(352.245 772.051) rotate(67)" fill="#f73563"/>
    <rect id="Rectangle_20" data-name="Rectangle 20" width="7" height="7" transform="translate(94.932 775.309) rotate(82)" fill="#fff"/>
    <rect id="Rectangle_21" data-name="Rectangle 21" width="6.986" height="6.986" transform="matrix(0.719, 0.695, -0.695, 0.719, 156.475, 740.561)" fill="#f73563"/>
    <path id="Polygon_2" data-name="Polygon 2" d="M5.5,0,11,9H0Z" transform="matrix(0.719, 0.695, -0.695, 0.719, 29.248, 634.187)" fill="#e7ebfc" opacity="0.5"/>
    <path id="Polygon_3" data-name="Polygon 3" d="M5.5,0,11,9H0Z" transform="matrix(0.719, 0.695, -0.695, 0.719, 305.248, 775.309)" fill="#e7ebfc" opacity="0.5"/>
    <circle id="Ellipse_66" data-name="Ellipse 66" cx="7.5" cy="7.5" r="7.5" transform="translate(325 736)" fill="url(#radial-gradient)"/>
    <circle id="Ellipse_67" data-name="Ellipse 67" cx="7.5" cy="7.5" r="7.5" transform="translate(200 749)" fill="url(#radial-gradient)"/>
    <g id="Group_154" data-name="Group 154" transform="translate(-29.461 368.694)">
      <path id="Path_16" data-name="Path 16" d="M.739,7.975C-.95,4.828.355,2.218,3.656.682s3.838,0,3.838,0L5.575,2.141s5.354-2.7,7.446-1.458C15.4,2.832,11.428,6.959,9.8,7.975,4.73,11.2,2.427,11.122.739,7.975Z" transform="matrix(0.259, 0.966, -0.966, 0.259, 164.897, 363.952)" fill="#ffe8b2"/>
      <path id="Path_17" data-name="Path 17" d="M8.113,7.3C12.949,5.608,62.962,0,62.962,0l3.63,7.3L23.271,29.352S10.484,36.272,3.09,26.4,3.277,8.994,8.113,7.3Z" transform="matrix(0.259, 0.966, -0.966, 0.259, 144.615, 303.571)" fill="#f73563"/>
      <path id="Path_18" data-name="Path 18" d="M607.928,334.274s-.243-7.5,2.017-12.381,3.224-12.059,3.224-12.059L604.7,330.78Z" transform="translate(-471.112 15.443)" opacity="0.2"/>
      <path id="Path_7" data-name="Path 7" d="M28.318,4.439,0,4.535,19.093,46.912l2.853,30.047h9.509s6.3-16.472,5.512-34.6S28.318,4.439,28.318,4.439Z" transform="translate(107.244 355.284)" fill="#534233"/>
      <path id="Path_6" data-name="Path 6" d="M2.669,4.524H31.455s-2.614,28.992-8.1,47.1S9.509,76.948,9.509,76.948H0L6.427,42.776s-4.054-11.439-4.993-21A51.576,51.576,0,0,1,2.669,4.524Z" transform="translate(98.258 355.295)" fill="#534233"/>
      <path id="Path_8" data-name="Path 8" d="M.314.12,35.073.109l.161,3.44L.314,3.4Z" transform="translate(100.543 360.367)" fill="#060000" opacity="0.5"/>
      <path id="Path_5" data-name="Path 5" d="M23.231,0C35.953,0,54.992,9.322,44.689,29.616S49.9,66.275,37.18,66.275c-6.9,0-24.84-.649-30.724-9.123-.98-8.55,5.215.155-1.716-37.052C2.682,8.416,10.509,0,23.231,0Z" transform="translate(94.48 304.095)" fill="#f73563"/>
      <path id="Path_11" data-name="Path 11" d="M590.03,366.264l1.766,3.608,4.782-25.136Z" transform="translate(-465.903 31.047)" opacity="0.2"/>
      <path id="Path_9" data-name="Path 9" d="M0,0H8.279l8.57,3.37V5.616H0Z" transform="translate(99.381 432.243)"/>
      <path id="Path_10" data-name="Path 10" d="M0,0H8.279l8.57,3.37V5.616H0Z" transform="translate(129.71 432.243)"/>
      <path id="Path_15" data-name="Path 15" d="M631.114,294.865c-1.689-3.147-.384-5.757,2.917-7.292s3.838,0,3.838,0l-1.919,1.458s5.354-2.7,7.446-1.458c2.38,2.149-1.593,6.277-3.224,7.292C635.106,298.089,632.8,298.012,631.114,294.865Z" transform="matrix(-0.719, 0.695, -0.695, -0.719, 738.48, 141.152)" fill="#ffe8b2"/>
      <path id="Path_13" data-name="Path 13" d="M6.171,23.062S-2.986,18.987,1.009,8.869s15.227-10.773,23.3-6,24.1,13.51,24.1,13.51Z" transform="translate(113.992 320.758) rotate(103)" opacity="0.1"/>
      <path id="Path_12" data-name="Path 12" d="M581.892,298.72c2.224-.779,14.008-2.386,26.394-3.933,13.872-1.733,28.456-3.368,28.456-3.368l3.63,7.3L597.05,320.771s-12.786,6.92-20.181-2.947S577.056,300.413,581.892,298.72Z" transform="matrix(-0.719, 0.695, -0.695, -0.719, 743.891, 136.712)" fill="#f73563"/>
      <path id="Rectangle_7" data-name="Rectangle 7" d="M0,0H13a0,0,0,0,1,0,0V8.893A5.107,5.107,0,0,1,7.893,14h0A7.893,7.893,0,0,1,0,6.107V0A0,0,0,0,1,0,0Z" transform="translate(114.38 297.43)" fill="#f5d280"/>
      <ellipse id="Ellipse_13" data-name="Ellipse 13" cx="6.74" cy="8.425" rx="6.74" ry="8.425" transform="translate(115.107 286.435)" fill="#ffe8b2"/>
      <path id="Path_14" data-name="Path 14" d="M587.594,267s-1.009,5.441-4.25,5.441c-2.444,0-4.037,2.2-3.186,6.047,1.257,4.54.205,8.048-.621,8.077-3.357.116-1.662,2.44-4.742,3.331s-5.878-.892-5.351-4.459,4.754-2.346,4.985-6.05-1.945-11.582,4.175-14.471,8.443,0,8.443,0a2.234,2.234,0,0,1,2.084-.463,7.829,7.829,0,0,1,5.241,5.987c.365,3.243-.147,6.285,2.284,6.632s3.7,1.5,3.01,3.126,1.519,1.717,1.142,3.948-4.081,4.077-5.586,2.688-2.387.774-3.892.89a2.382,2.382,0,0,1-2.2-1.158v-4.928s2.468-1.21,2.711-7.29C591.672,268.064,587.594,267,587.594,267Z" transform="translate(-463.508 20.576)"/>
    </g>
    <g id="Group_155" data-name="Group 155" transform="translate(-16.097 379.889)">
      <path id="Path_28" data-name="Path 28" d="M1060.877,301.825s16.82,2.473,28.445,2.473,19.541-3.958,26.714-2.473,18.3,2.473,18.3,2.473-8.9-6.184-8.9-10.636,1.484-14.1-6.431-28.2-19.046-18.551-19.046-18.551l8.41-20.777s-4.205,2.226-8.41,1.237-3.71-3.216-7.915-3.216-5.195,4.452-8.41,4.452a32.237,32.237,0,0,1-7.421-1.237l11.378,19.541s-15.088,11.626-18.057,19.788-.99,21.272-2.968,25.23S1060.877,301.825,1060.877,301.825Z" transform="translate(-822.348 122.105)" fill="#ffbd17"/>
      <path id="Subtraction_7" data-name="Subtraction 7" d="M28.445,78.162C16.948,78.162.168,75.714,0,75.689c.028-.046,3.729-5.974,5.689-9.894.691-1.383.883-3.928.979-6.234l.258.3a33.9,33.9,0,0,0,.637,5.39c.511,2.436,1.546,5.366,3.568,5.493.124.008.253.012.406.012A13.928,13.928,0,0,0,16.618,69.4l.356-.143a16.348,16.348,0,0,1,6.236-1.5c.178,0,.358,0,.535.013a40.8,40.8,0,0,1,5.23.834,58.1,58.1,0,0,0,11.035,1.421,16.967,16.967,0,0,0,9.212-2.254c7.151-4.468,5.01-11.582,2.531-19.819-.263-.874-.535-1.777-.8-2.69-2.69-9.291-16.189-24.337-16.325-24.487L39.546,1.333a10.153,10.153,0,0,0,1.806.157A14.787,14.787,0,0,0,47.492,0l-8.41,20.778.009,0a32.5,32.5,0,0,1,6.546,3.987A47.605,47.605,0,0,1,58.128,39.33a50.554,50.554,0,0,1,5.916,15.962A47.128,47.128,0,0,1,64.6,65.7c-.024.691-.045,1.288-.045,1.825,0,4.353,8.537,10.378,8.9,10.632-.459-.038-11.286-1.019-18.3-2.47a16.937,16.937,0,0,0-3.466-.333,50.567,50.567,0,0,0-9.08,1.173A74.081,74.081,0,0,1,28.445,78.162Z" transform="translate(238.529 348.24)" fill="#ff9a17"/>
      <path id="Path_31" data-name="Path 31" d="M714.833,350.136c.709-1.181,1.122-1.949,4.842-.472s9.152-.472,9.152-.472,2.893.177.945.945-5.492,2.952-8.031,2.126-2.421-1.712-4.192-1.24S714.124,351.317,714.833,350.136Z" transform="translate(-450.539 19.198)" fill="none" stroke="#000" stroke-linecap="round" stroke-width="1"/>
      <path id="Path_32" data-name="Path 32" d="M724.642,357.982s2.067-6.2,1.594-8.326a4.082,4.082,0,0,0-3.661-3.6c-2.067-.3-1.476,3.011.945,4.015s6.732,2.893,8.562,4.724a7.319,7.319,0,0,1,1.771,4.783" transform="translate(-449.719 18.851)" fill="none" stroke="#000" stroke-linecap="round" stroke-width="1"/>
    </g>
    <g id="Group_156" data-name="Group 156" transform="translate(240.363 767.68)">
      <g id="Ellipse_20" data-name="Ellipse 20" transform="translate(-0.081 -0.362)" fill="#ffbd17" stroke="#fff" stroke-width="1">
        <circle cx="13.5" cy="13.5" r="13.5" stroke="none"/>
        <circle cx="13.5" cy="13.5" r="13" fill="none"/>
      </g>
      <path id="currency-dollar" d="M4,13.557c.19,2.14,1.942,3.659,4.61,3.855v1.561H9.949V17.412c2.914-.23,4.722-1.846,4.722-4.237,0-2.041-1.216-3.222-3.795-3.887l-.927-.24V4.167a2.744,2.744,0,0,1,2.657,2.075h1.887c-.213-2.054-1.977-3.528-4.545-3.691V1H8.61V2.583c-2.489.3-4.2,1.89-4.2,4.052,0,1.867,1.24,3.188,3.416,3.745l.783.208v5.175a2.981,2.981,0,0,1-2.736-2.206H4ZM8.353,8.632C7.014,8.295,6.3,7.573,6.3,6.558A2.455,2.455,0,0,1,8.61,4.211V8.7l-.257-.064Zm2.043,2.4c1.652.415,2.378,1.1,2.378,2.271,0,1.408-1.06,2.347-2.824,2.489V10.924l.447.11Z" transform="translate(3.863 3.054)" fill="#fff"/>
    </g>
    <g id="Group_157" data-name="Group 157" transform="translate(14.213 709.226)">
      <g id="Ellipse_20-2" data-name="Ellipse 20" transform="translate(0.302 -0.226)" fill="#ffbd17" stroke="#fff" stroke-width="1">
        <circle cx="13.5" cy="13.5" r="13.5" stroke="none"/>
        <circle cx="13.5" cy="13.5" r="13" fill="none"/>
      </g>
      <path id="currency-dollar-2" data-name="currency-dollar" d="M4,13.557c.19,2.14,1.942,3.659,4.61,3.855v1.561H9.949V17.412c2.914-.23,4.722-1.846,4.722-4.237,0-2.041-1.216-3.222-3.795-3.887l-.927-.24V4.167a2.744,2.744,0,0,1,2.657,2.075h1.887c-.213-2.054-1.977-3.528-4.545-3.691V1H8.61V2.583c-2.489.3-4.2,1.89-4.2,4.052,0,1.867,1.24,3.188,3.416,3.745l.783.208v5.175a2.981,2.981,0,0,1-2.736-2.206H4ZM8.353,8.632C7.014,8.295,6.3,7.573,6.3,6.558A2.455,2.455,0,0,1,8.61,4.211V8.7l-.257-.064Zm2.043,2.4c1.652.415,2.378,1.1,2.378,2.271,0,1.408-1.06,2.347-2.824,2.489V10.924l.447.11Z" transform="translate(3.863 3.054)" fill="#fff"/>
    </g>
    <g id="Group_158" data-name="Group 158" transform="translate(211.903 471.175)">
      <g id="Ellipse_21" data-name="Ellipse 21" transform="translate(115.38 223.43)" fill="#ffbd17" stroke="#fff" stroke-width="1">
        <circle cx="13.5" cy="13.5" r="13.5" stroke="none"/>
        <circle cx="13.5" cy="13.5" r="13" fill="none"/>
      </g>
      <path id="currency-dollar-3" data-name="currency-dollar" d="M4,13.557c.19,2.14,1.942,3.659,4.61,3.855v1.561H9.949V17.412c2.914-.23,4.722-1.846,4.722-4.237,0-2.041-1.216-3.222-3.795-3.887l-.927-.24V4.167a2.744,2.744,0,0,1,2.657,2.075h1.887c-.213-2.054-1.977-3.528-4.545-3.691V1H8.61V2.583c-2.489.3-4.2,1.89-4.2,4.052,0,1.867,1.24,3.188,3.416,3.745l.783.208v5.175a2.981,2.981,0,0,1-2.736-2.206H4ZM8.353,8.632C7.014,8.295,6.3,7.573,6.3,6.558A2.455,2.455,0,0,1,8.61,4.211V8.7l-.257-.064Zm2.043,2.4c1.652.415,2.378,1.1,2.378,2.271,0,1.408-1.06,2.347-2.824,2.489V10.924l.447.11Z" transform="translate(118.97 226.369)" fill="#fff"/>
    </g>
    <g id="Group_159" data-name="Group 159" transform="translate(160.733 766.076)">
      <g id="Ellipse_22" data-name="Ellipse 22" transform="translate(-0.233 0.145)" fill="#ffbd17" stroke="#fff" stroke-width="1">
        <circle cx="13.5" cy="13.5" r="13.5" stroke="none"/>
        <circle cx="13.5" cy="13.5" r="13" fill="none"/>
      </g>
      <path id="currency-dollar-4" data-name="currency-dollar" d="M4,13.557c.19,2.14,1.942,3.659,4.61,3.855v1.561H9.949V17.412c2.914-.23,4.722-1.846,4.722-4.237,0-2.041-1.216-3.222-3.795-3.887l-.927-.24V4.167a2.744,2.744,0,0,1,2.657,2.075h1.887c-.213-2.054-1.977-3.528-4.545-3.691V1H8.61V2.583c-2.489.3-4.2,1.89-4.2,4.052,0,1.867,1.24,3.188,3.416,3.745l.783.208v5.175a2.981,2.981,0,0,1-2.736-2.206H4ZM8.353,8.632C7.014,8.295,6.3,7.573,6.3,6.558A2.455,2.455,0,0,1,8.61,4.211V8.7l-.257-.064Zm2.043,2.4c1.652.415,2.378,1.1,2.378,2.271,0,1.408-1.06,2.347-2.824,2.489V10.924l.447.11Z" transform="translate(3.863 3.054)" fill="#fff"/>
    </g>
    <g id="Group_160" data-name="Group 160" transform="translate(150.71 714)" opacity="0.2">
      <line id="Line_1" data-name="Line 1" x2="26.958" fill="none" stroke="#fff" stroke-linecap="round" stroke-width="3"/>
      <line id="Line_2" data-name="Line 2" x2="15.336" transform="translate(35.464)" fill="none" stroke="#fff" stroke-linecap="round" stroke-width="3"/>
      <line id="Line_3" data-name="Line 3" x2="50.799" transform="translate(0 7.863)" fill="none" stroke="#fff" stroke-linecap="round" stroke-width="3"/>
      <line id="Line_4" data-name="Line 4" x2="35.464" transform="translate(0 15.726)" fill="none" stroke="#fff" stroke-linecap="round" stroke-width="3"/>
    </g>
    <g id="Group_161" data-name="Group 161" transform="translate(269.837 690.939)" opacity="0.2">
      <line id="Line_1-2" data-name="Line 1" x2="26.958" transform="translate(0)" fill="none" stroke="#fff" stroke-linecap="round" stroke-width="3"/>
      <line id="Line_2-2" data-name="Line 2" x2="15.336" transform="translate(35.464)" fill="none" stroke="#fff" stroke-linecap="round" stroke-width="3"/>
      <line id="Line_3-2" data-name="Line 3" x2="50.799" transform="translate(0 7.863)" fill="none" stroke="#fff" stroke-linecap="round" stroke-width="3"/>
      <line id="Line_4-2" data-name="Line 4" x2="35.464" transform="translate(0 15.726)" fill="none" stroke="#fff" stroke-linecap="round" stroke-width="3"/>
    </g>
    <g id="Group_162" data-name="Group 162" transform="translate(202.432 667.5)" opacity="0.3">
      <line id="Line_1-3" data-name="Line 1" x2="26.958" transform="translate(0)" fill="none" stroke="#000" stroke-linecap="round" stroke-width="3"/>
      <line id="Line_2-3" data-name="Line 2" x2="15.336" transform="translate(35.464)" fill="none" stroke="#000" stroke-linecap="round" stroke-width="3"/>
      <line id="Line_3-3" data-name="Line 3" x2="50.799" transform="translate(0 7.863)" fill="none" stroke="#000" stroke-linecap="round" stroke-width="3"/>
      <line id="Line_4-3" data-name="Line 4" x2="35.464" transform="translate(0 15.726)" fill="none" stroke="#000" stroke-linecap="round" stroke-width="3"/>
    </g>
  </g>
</svg>
