<svg xmlns="http://www.w3.org/2000/svg" width="16" height="25" viewBox="0 0 16 25">
  <defs>
    <style>
      .cls-1 {
        fill: #fff;
      }
    </style>
  </defs>
  <g id="centerbutton" transform="translate(-180 -1709)">
    <g id="credit-card" transform="translate(180 1720)">
      <path id="Path_87" data-name="Path 87" class="cls-1" d="M0,4A2,2,0,0,1,2,2H14a2,2,0,0,1,2,2v8a2,2,0,0,1-2,2H2a2,2,0,0,1-2-2ZM2,3A1,1,0,0,0,1,4V5H15V4a1,1,0,0,0-1-1ZM15,7H1v5a1,1,0,0,0,1,1H14a1,1,0,0,0,1-1Z"/>
      <path id="Path_88" data-name="Path 88" class="cls-1" d="M2,10A1,1,0,0,1,3,9H4a1,1,0,0,1,1,1v1a1,1,0,0,1-1,1H3a1,1,0,0,1-1-1Z"/>
    </g>
    <g id="wifi" transform="translate(179.532 1706)">
      <path id="Path_91" data-name="Path 91" class="cls-1" d="M15.384,6.115a.485.485,0,0,0-.047-.736,12.5,12.5,0,0,0-14.674,0,.485.485,0,0,0-.048.736.518.518,0,0,0,.668.05,11.5,11.5,0,0,1,13.433,0,.517.517,0,0,0,.668-.049Z"/>
      <path id="Path_92" data-name="Path 92" class="cls-1" d="M13.229,8.271a.482.482,0,0,0-.063-.745,9.507,9.507,0,0,0-10.332,0,.48.48,0,0,0-.063.745.525.525,0,0,0,.652.065,8.506,8.506,0,0,1,9.153,0,.525.525,0,0,0,.653-.065Zm-2.183,2.183a.466.466,0,0,0-.1-.75,6.516,6.516,0,0,0-5.892,0,.466.466,0,0,0-.1.75l.015.015a.532.532,0,0,0,.611.09,5.513,5.513,0,0,1,4.84,0,.529.529,0,0,0,.61-.091ZM9.06,12.44a.415.415,0,0,0-.04-.66,2,2,0,0,0-2.04,0,.415.415,0,0,0-.04.66l.706.706a.5.5,0,0,0,.707,0l.707-.707Z"/>
    </g>
  </g>
</svg>
