<svg xmlns="http://www.w3.org/2000/svg" width="10" height="18" viewBox="0 0 10 18">
  <defs>
    <style>
      .cls-1 {
        fill: #fff;
      }
    </style>
  </defs>
  <path id="gas" class="cls-1" d="M-3793,608v-1h1v1Zm-5,0v-1h1v1Zm0-1a2,2,0,0,1-2-2v-9.5a2.5,2.5,0,0,1,2.5-2.5h.5v-2h-.5a.5.5,0,0,1-.5-.5.5.5,0,0,1,.5-.5h5a.5.5,0,0,1,.5.5.5.5,0,0,1-.5.5h-.5v2h.5a2.5,2.5,0,0,1,2.5,2.5V605a2,2,0,0,1-2,2Zm-1-11.5v8.795c0,.49-.015,1.329,1,1.329h6c1.08,0,1-1.153,1-1.329V595.5a1.5,1.5,0,0,0-1.5-1.5h-5A1.5,1.5,0,0,0-3799,595.5Zm5-2.5v-2h-2v2Z" transform="translate(3800 -590)"/>
</svg>
